<?xml version="1.0" encoding="UTF-8"?>
<svg id="Layer_2" data-name="Layer 2" xmlns="http://www.w3.org/2000/svg" viewBox="0 0 100.99 138">
  <defs>
    <style>
      .cls-1 {
        stroke-width: 0px;
      }
    </style>
  </defs>
  <path class="cls-1" d="m39.86,70.06c-1.9,0-3.46-1.53-3.5-3.44-.08-4.28.99-8.25,3.18-11.82,3.62-5.9,9.29-8.85,13.86-11.23,5.57-2.9,9.36-3.89,12.41-4.69,2.6-.68,4.48-1.18,6.75-2.67,4.28-2.82,7.03-7.25,8.4-13.54.27-1.26,1.22-2.27,2.46-2.62,1.24-.35,2.57,0,3.47.93,2.62,2.71,8.56,10.03,7.02,19.37-.26,1.61-1.07,6.5-5.47,10.91-5.46,5.48-13,6.68-19.66,7.73-6.2.98-12.05,1.91-15.6,5.93-.69.79-1.27,1.65-1.71,2.56-.84,1.74-2.94,2.47-4.68,1.62-1.74-.84-2.47-2.94-1.62-4.68.72-1.48,1.65-2.87,2.76-4.14,5.21-5.91,12.61-7.08,19.75-8.21,6.15-.97,11.95-1.89,15.8-5.76,2.82-2.83,3.33-5.94,3.53-7.11.5-3.06-.28-5.88-1.43-8.18-2.09,4.69-5.16,8.38-9.17,11.02-3.23,2.13-5.95,2.84-8.83,3.6-2.85.75-6.08,1.6-10.95,4.13-4.19,2.18-8.52,4.43-11.12,8.68-1.48,2.41-2.2,5.12-2.15,8.04.04,1.93-1.5,3.53-3.44,3.56-.02,0-.04,0-.06,0Z"/>
  <path class="cls-1" d="m34.61,51.76c-.36,0-.71-.05-1.06-.17-1.41-.45-2.39-1.74-2.43-3.23-.28-9.18,2.25-16.37,7.53-21.38,3.6-3.41,7.6-5.02,11.14-6.44s6.33-2.54,7.88-5.03c1.65-2.65,1.59-6.26-.17-10.74-.51-1.31-.19-2.8.81-3.78,1.01-.98,2.5-1.27,3.8-.72,8.81,3.69,14.36,10.46,14.5,17.66.07,3.97-1.54,8.03-4.54,11.41-3.75,4.23-8.14,5.5-12.79,6.84-2.64.76-5.37,1.55-8.35,2.97-5.18,2.46-9.73,6.24-13.51,11.23-.67.89-1.71,1.39-2.79,1.39Zm31.25-40.95c.04,3.1-.71,5.91-2.26,8.4-2.76,4.44-7.06,6.17-11.21,7.83-3.24,1.3-6.3,2.53-8.93,5.02-1.76,1.67-3.08,3.69-3.97,6.08,2.61-2.13,5.42-3.91,8.42-5.33,3.49-1.66,6.64-2.57,9.41-3.37,4.12-1.19,7.09-2.05,9.5-4.76,1.06-1.2,2.83-3.65,2.78-6.63-.05-2.5-1.41-5.04-3.74-7.24Z"/>
  <path class="cls-1" d="m40.33,138c-4.07,0-9.51-.52-15.31-2.96-.92-.38-22.47-9.76-24.91-38.58-.18-2.12-.65-7.74,3.2-10.71,3.85-2.97,9.09-1.15,11.06-.46l.13.05c12.13,4.21,32.38,4.56,46.12.78,4.17-1.15,7.93-2.63,10.21-3.83-4.7-1.23-15.07-2.23-26.07-1.59-5.81.34-11.64,1.18-17.32,2.5-1.88.44-3.76-.73-4.2-2.61-.44-1.88.73-3.76,2.61-4.2,6.07-1.41,12.29-2.31,18.5-2.67,7-.4,14.92-.2,21.19.55,9.45,1.13,13.67,3.23,14.12,7.03.52,4.4-5.27,8.3-17.19,11.58-15.16,4.17-36.77,3.78-50.27-.91l-.14-.05c-3.37-1.18-4.28-.76-4.48-.61-.08.07-.83.75-.5,4.58,2.07,24.47,19.9,32.4,20.66,32.73,7,2.94,13.4,2.47,16.84,2.22,5.03-.37,12.61-.93,18.32-5.81,6.99-5.98,11.34-18.34,12.66-24.04,1.31-5.7,4.03-9.27,6.08-11.28,3.03-2.96,5.73-3.71,7.46-3.81,4.66-.25,8.3,3.01,9.71,4.99,1.96,2.76,3.6,7.73.23,15.72-3.02,7.15-8.88,10.82-12.1,12.37-1.74.84-3.83.11-4.67-1.63s-.11-3.83,1.63-4.67c1.88-.91,6.48-3.58,8.69-8.79,2.12-5.01,1.45-7.62.52-8.93,0,0-1.66-2.18-3.59-2.06-.12,0-1.24.12-2.98,1.83-1.38,1.35-3.22,3.8-4.14,7.8-.45,1.97-4.64,19.03-14.94,27.83-7.46,6.38-16.78,7.06-22.35,7.47-1.21.09-2.84.21-4.78.21Z"/>
</svg>